<svg width="14" height="14" viewBox="0 0 14 14" fill="none" xmlns="http://www.w3.org/2000/svg">
<path fill-rule="evenodd" clip-rule="evenodd" d="M12.5886 1.41205C12.914 1.73748 12.914 2.26512 12.5886 2.59056L2.5886 12.5906C2.26317 12.916 1.73553 12.916 1.41009 12.5906C1.08466 12.2651 1.08466 11.7375 1.41009 11.412L11.4101 1.41205C11.7355 1.08661 12.2632 1.08661 12.5886 1.41205Z" fill="#4E4E4E"/>
<path fill-rule="evenodd" clip-rule="evenodd" d="M1.41009 1.41205C1.73553 1.08661 2.26317 1.08661 2.5886 1.41205L12.5886 11.412C12.914 11.7375 12.914 12.2651 12.5886 12.5906C12.2632 12.916 11.7355 12.916 11.4101 12.5906L1.41009 2.59056C1.08466 2.26512 1.08466 1.73748 1.41009 1.41205Z" fill="#4E4E4E"/>
</svg>
