<svg width="14" height="14" viewBox="0 0 14 14" fill="none" xmlns="http://www.w3.org/2000/svg">
<path d="M7 13.6667C3.33333 13.6667 0.333328 10.6667 0.333328 7C0.333328 3.33334 3.33333 0.333336 7 0.333336C10.6667 0.333336 13.6667 3.33334 13.6667 7C13.6667 10.6667 10.6667 13.6667 7 13.6667ZM7 1.66667C4.06666 1.66667 1.66666 4.06667 1.66666 7C1.66666 9.93334 4.06666 12.3333 7 12.3333C9.93333 12.3333 12.3333 9.93334 12.3333 7C12.3333 4.06667 9.93333 1.66667 7 1.66667ZM7 10.0667C6.6 10.0667 6.33333 9.8 6.33333 9.4V7C6.33333 6.6 6.6 6.33334 7 6.33334C7.4 6.33334 7.66666 6.6 7.66666 7V9.4C7.66666 9.8 7.4 10.0667 7 10.0667ZM7 5.26667C6.6 5.26667 6.33333 5 6.33333 4.6C6.33333 4.2 6.6 3.93334 7 3.93334C7.4 3.93334 7.66666 4.2 7.66666 4.6C7.66666 5 7.4 5.26667 7 5.26667Z" fill="#383838"/>
</svg>
