<svg xmlns="http://www.w3.org/2000/svg" viewBox="0 0 24 24">
  <path fill-rule="evenodd" d="M4 22a2 2 0 0 1-2-2v-4.667a2 2 0 0 1 2 2V20h2.667a2 2 0 0 1 2 2H4Zm18-6.667a2 2 0 0 0-2 2V20h-2.667a2 2 0 0 0-2 2H20a2 2 0 0 0 2-2v-4.667ZM15.333 2a2 2 0 0 0 2 2H20v2.667a2 2 0 0 0 2 2V4a2 2 0 0 0-2-2h-4.667ZM2 8.667a2 2 0 0 0 2-2V4h2.667a2 2 0 0 0 2-2H4a2 2 0 0 0-2 2v4.667ZM9.2 11v5h6v-5h-6Zm-2-.2c0-.865.641-1.8 1.7-1.8h6.598c1.06 0 1.701.935 1.701 1.8v5.4c0 .865-.641 1.8-1.701 1.8H8.9c-1.06 0-1.701-.935-1.701-1.8v-5.4Z" clip-rule="evenodd"/>
  <path fill-rule="evenodd" d="M12.283 6.75a1.276 1.276 0 0 0-1.276 1.276v1.579a.75.75 0 0 1-1.5 0V8.026a2.776 2.776 0 1 1 5.552 0v1.578a.75.75 0 0 1-1.5 0V8.026a1.276 1.276 0 0 0-1.276-1.276Z" clip-rule="evenodd"/>
</svg>
