<svg xmlns="http://www.w3.org/2000/svg" viewBox="0 0 18 18">
  <path fill-rule="evenodd" d="M6 .75a.75.75 0 0 1 .75.75v3a.75.75 0 0 1-1.5 0v-3A.75.75 0 0 1 6 .75Zm6 0a.75.75 0 0 1 .75.75v3a.75.75 0 0 1-1.5 0v-3A.75.75 0 0 1 12 .75Z" clip-rule="evenodd"/>
  <path fill-rule="evenodd" d="M2.159 2.909A2.25 2.25 0 0 1 3.75 2.25h10.5A2.25 2.25 0 0 1 16.5 4.5v6a.75.75 0 0 1-1.5 0v-6a.75.75 0 0 0-.75-.75H3.75A.75.75 0 0 0 3 4.5V15a.75.75 0 0 0 .75.75h6a.75.75 0 0 1 0 1.5h-6A2.25 2.25 0 0 1 1.5 15V4.5c0-.597.237-1.169.659-1.591Z" clip-rule="evenodd"/>
  <path fill-rule="evenodd" d="M1.5 7.5a.75.75 0 0 1 .75-.75h13.5a.75.75 0 0 1 0 1.5H2.25a.75.75 0 0 1-.75-.75Zm15.53 5.47a.75.75 0 0 1 0 1.06l-3 3a.75.75 0 0 1-1.06 0l-1.5-1.5a.75.75 0 1 1 1.06-1.06l.97.97 2.47-2.47a.75.75 0 0 1 1.06 0Z" clip-rule="evenodd"/>
</svg>
