<svg xmlns="http://www.w3.org/2000/svg" fill="#000" viewBox="0 0 24 24">
  <path fill-rule="evenodd" d="M7.5 14.773a6.363 6.363 0 0 1 10.864 4.5.91.91 0 1 1-1.819 0 4.545 4.545 0 1 0-9.09 0 .91.91 0 1 1-1.819 0 6.36 6.36 0 0 1 1.864-4.5Z" clip-rule="evenodd"/>
  <path fill-rule="evenodd" d="M12 7.455a2.727 2.727 0 1 0 0 5.454 2.727 2.727 0 0 0 0-5.454Zm-4.545 2.727a4.545 4.545 0 1 1 9.09 0 4.545 4.545 0 0 1-9.09 0Z" clip-rule="evenodd"/>
  <path fill-rule="evenodd" d="M12 3.818a8.182 8.182 0 1 0 0 16.364 8.182 8.182 0 0 0 0-16.364ZM2 12C2 6.477 6.477 2 12 2s10 4.477 10 10-4.477 10-10 10S2 17.523 2 12Z" clip-rule="evenodd"/>
</svg>
